<svg width="102" height="23" viewBox="0 0 102 23" fill="none" xmlns="http://www.w3.org/2000/svg">
<path fill-rule="evenodd" clip-rule="evenodd" d="M4.13178 13.1603L3.1365 15.0338V21.3274H-0.0834961V0.836478H3.1365V9.76466L7.35178 0.836478H10.5718L6.09305 9.96957L10.5718 21.3274H7.26396L4.13178 13.1603ZM15.1174 16.6145C15.1174 17.3561 15.2686 17.8781 15.5711 18.1806C15.8736 18.4831 16.2785 18.6343 16.7859 18.6343C17.2933 18.6343 17.6982 18.4831 18.0007 18.1806C18.3032 17.8781 18.4544 17.3561 18.4544 16.6145V5.54939C18.4544 4.80781 18.3032 4.28578 18.0007 3.98329C17.6982 3.68081 17.2933 3.52957 16.7859 3.52957C16.2785 3.52957 15.8736 3.68081 15.5711 3.98329C15.2686 4.28578 15.1174 4.80781 15.1174 5.54939V16.6145ZM11.8975 5.75429C11.8975 4.0955 12.317 2.82215 13.1562 1.9342C13.9954 1.04626 15.2053 0.602295 16.786 0.602295C18.3667 0.602295 19.5767 1.04626 20.4158 1.9342C21.255 2.82215 21.6746 4.0955 21.6746 5.75429V16.4096C21.6746 18.0684 21.255 19.3417 20.4158 20.2297C19.5767 21.1176 18.3667 21.5616 16.786 21.5616C15.2053 21.5616 13.9954 21.1176 13.1562 20.2297C12.317 19.3417 11.8975 18.0684 11.8975 16.4096V5.75429ZM26.9518 6.48611V21.3274H24.0538V0.836478H28.0935L31.4013 13.1018V0.836478H34.27V21.3274H30.9622L26.9518 6.48611ZM36.5034 5.75429C36.5034 4.0955 36.8985 2.82215 37.6889 1.9342C38.4793 1.04626 39.6648 0.602295 41.2455 0.602295C42.8263 0.602295 44.0118 1.04626 44.8022 1.9342C45.5925 2.82215 45.9877 4.0955 45.9877 5.75429V6.39829H42.9434V5.54939C42.9434 4.80781 42.8019 4.28578 42.5189 3.98329C42.2359 3.68081 41.8408 3.52957 41.3334 3.52957C40.826 3.52957 40.4308 3.68081 40.1478 3.98329C39.8648 4.28578 39.7234 4.80781 39.7234 5.54939C39.7234 6.25193 39.8795 6.87153 40.1917 7.4082C40.504 7.94487 40.8943 8.45226 41.3626 8.93039C41.831 9.40851 42.3335 9.88663 42.8702 10.3647C43.4068 10.8429 43.9094 11.3649 44.3777 11.9308C44.8461 12.4968 45.2364 13.1408 45.5486 13.8628C45.8609 14.5849 46.017 15.4338 46.017 16.4096C46.017 18.0684 45.6121 19.3417 44.8022 20.2297C43.9923 21.1176 42.797 21.5616 41.2163 21.5616C39.6355 21.5616 38.4402 21.1176 37.6304 20.2297C36.8205 19.3417 36.4155 18.0684 36.4155 16.4096V15.1508H39.4599V16.6145C39.4599 17.3561 39.6111 17.8732 39.9136 18.1659C40.2161 18.4587 40.621 18.605 41.1284 18.605C41.6358 18.605 42.0408 18.4587 42.3433 18.1659C42.6457 17.8732 42.797 17.3561 42.797 16.6145C42.797 15.9119 42.6409 15.2923 42.3286 14.7557C42.0164 14.219 41.6261 13.7116 41.1577 13.2335C40.6894 12.7554 40.1868 12.2772 39.6502 11.7991C39.1135 11.321 38.611 10.799 38.1426 10.233C37.6743 9.66708 37.284 9.02309 36.9717 8.30102C36.6595 7.57896 36.5034 6.73006 36.5034 5.75429ZM47.2546 0.836478H57.2073V3.76375H53.8409V21.3274H50.6209V3.76375H47.2546V0.836478ZM65.6756 21.3274C65.6366 21.1908 65.5976 21.0639 65.5585 20.9468C65.5195 20.8298 65.4854 20.6834 65.4561 20.5078C65.4268 20.3321 65.4073 20.1077 65.3975 19.8345C65.3878 19.5613 65.3829 19.2198 65.3829 18.8099V15.5899C65.3829 14.6337 65.217 13.9604 64.8853 13.5701C64.5535 13.1798 64.0169 12.9847 63.2753 12.9847H62.1629V21.3274H58.9429V0.836478H63.8022C65.4805 0.836478 66.6953 1.22678 67.4466 2.00739C68.198 2.788 68.5736 3.96865 68.5736 5.54939V7.15939C68.5736 9.26703 67.8711 10.6526 66.466 11.3161C67.2856 11.6479 67.8467 12.1894 68.1492 12.9408C68.4517 13.6921 68.6029 14.6044 68.6029 15.6778V18.8392C68.6029 19.3466 68.6224 19.7906 68.6615 20.1711C68.7005 20.5517 68.7981 20.9371 68.9542 21.3274H65.6756ZM62.1628 3.76375V10.0574H63.4215C64.0265 10.0574 64.4998 9.90127 64.8413 9.58902C65.1828 9.27678 65.3536 8.71085 65.3536 7.89121V5.87139C65.3536 5.12981 65.2218 4.59315 64.9584 4.26139C64.6949 3.92963 64.2802 3.76375 63.7143 3.76375H62.1628ZM74.1145 0.836478V16.6438C74.1145 17.3853 74.2657 17.9025 74.5682 18.1952C74.8707 18.4879 75.2757 18.6343 75.7831 18.6343C76.2904 18.6343 76.6954 18.4879 76.9979 18.1952C77.3004 17.9025 77.4516 17.3853 77.4516 16.6438V0.836478H80.496V16.4388C80.496 18.0976 80.091 19.371 79.2811 20.2589C78.4713 21.1469 77.276 21.5908 75.6952 21.5908C74.1145 21.5908 72.9192 21.1469 72.1093 20.2589C71.2994 19.371 70.8945 18.0976 70.8945 16.4388V0.836478H74.1145ZM91.8203 0.836478H101.773V3.76375H98.4067V21.3274H95.1867V3.76375H91.8203V0.836478Z" fill="white"/>
<path fill-rule="evenodd" clip-rule="evenodd" d="M82.0255 11.4851L90.3892 1.03052V21.9396L82.0255 11.4851Z" fill="#00A4E5"/>
</svg>
